solid Teaching Tech camera mount - locking ring - loose.stl
  facet normal -0.707107 0 0.707107
    outer loop
      vertex 139.887 108.625 5
      vertex 138.887 108.5 4
      vertex 139.887 101.375 5
    endloop
  endfacet
  facet normal -0.707107 0 0.707107
    outer loop
      vertex 138.887 108.5 4
      vertex 138.887 101.5 4
      vertex 139.887 101.375 5
    endloop
  endfacet
  facet normal 0 0.707109 0.707105
    outer loop
      vertex 128.625 90.1133 5
      vertex 128.5 91.1133 4
      vertex 121.375 90.1133 5
    endloop
  endfacet
  facet normal 0 0.707109 0.707105
    outer loop
      vertex 128.5 91.1133 4
      vertex 121.5 91.1133 4
      vertex 121.375 90.1133 5
    endloop
  endfacet
  facet normal 0.707107 0 0.707107
    outer loop
      vertex 110.113 101.375 5
      vertex 111.113 101.5 4
      vertex 110.113 108.625 5
    endloop
  endfacet
  facet normal 0.707107 0 0.707107
    outer loop
      vertex 111.113 101.5 4
      vertex 111.113 108.5 4
      vertex 110.113 108.625 5
    endloop
  endfacet
  facet normal 0 -0.707107 0.707107
    outer loop
      vertex 121.375 119.887 5
      vertex 121.5 118.887 4
      vertex 128.625 119.887 5
    endloop
  endfacet
  facet normal 0 -0.707107 0.707107
    outer loop
      vertex 121.5 118.887 4
      vertex 128.5 118.887 4
      vertex 128.625 119.887 5
    endloop
  endfacet
  facet normal -0.707107 0 -0.707107
    outer loop
      vertex 138.887 108.5 1
      vertex 139.887 108.625 0
      vertex 138.887 101.5 1
    endloop
  endfacet
  facet normal -0.707107 0 -0.707107
    outer loop
      vertex 139.887 108.625 0
      vertex 139.887 101.375 0
      vertex 138.887 101.5 1
    endloop
  endfacet
  facet normal 0 0.707109 -0.707105
    outer loop
      vertex 128.5 91.1133 1
      vertex 128.625 90.1133 0
      vertex 121.5 91.1133 1
    endloop
  endfacet
  facet normal 0 0.707109 -0.707105
    outer loop
      vertex 128.625 90.1133 0
      vertex 121.375 90.1133 0
      vertex 121.5 91.1133 1
    endloop
  endfacet
  facet normal 0 -0.707107 -0.707107
    outer loop
      vertex 121.5 118.887 1
      vertex 121.375 119.887 0
      vertex 128.5 118.887 1
    endloop
  endfacet
  facet normal 0 -0.707107 -0.707107
    outer loop
      vertex 121.375 119.887 0
      vertex 128.625 119.887 0
      vertex 128.5 118.887 1
    endloop
  endfacet
  facet normal 0.707107 0 -0.707107
    outer loop
      vertex 111.113 101.5 1
      vertex 110.113 101.375 0
      vertex 111.113 108.5 1
    endloop
  endfacet
  facet normal 0.707107 0 -0.707107
    outer loop
      vertex 110.113 101.375 0
      vertex 110.113 108.625 0
      vertex 111.113 108.5 1
    endloop
  endfacet
  facet normal 0 0 -1
    outer loop
      vertex 139.887 101.375 0
      vertex 139.887 108.625 0
      vertex 142.895 109 0
    endloop
  endfacet
  facet normal 0 0 -1
    outer loop
      vertex 121.375 90.1133 0
      vertex 128.625 90.1133 0
      vertex 129 87.1051 0
    endloop
  endfacet
  facet normal 0 0 -1
    outer loop
      vertex 129.514 84.491 0
      vertex 129 87.1051 0
      vertex 130.816 87.6101 0
    endloop
  endfacet
  facet normal 0 0 -1
    outer loop
      vertex 142.895 101 0
      vertex 139.887 101.375 0
      vertex 145.969 106.137 0
    endloop
  endfacet
  facet normal 0 0 -1
    outer loop
      vertex 139.887 101.375 0
      vertex 142.895 109 0
      vertex 145.969 106.137 0
    endloop
  endfacet
  facet normal 0 0 -1
    outer loop
      vertex 145.969 106.137 0
      vertex 142.895 109 0
      vertex 145.723 108.397 0
    endloop
  endfacet
  facet normal 0 0 -1
    outer loop
      vertex 142.895 109 0
      vertex 142.39 110.815 0
      vertex 145.723 108.397 0
    endloop
  endfacet
  facet normal 0 0 -1
    outer loop
      vertex 110.113 108.625 0
      vertex 110.113 101.375 0
      vertex 107.105 101 0
    endloop
  endfacet
  facet normal 0 0 -1
    outer loop
      vertex 121 87.1051 0
      vertex 121.375 90.1133 0
      vertex 125 84 0
    endloop
  endfacet
  facet normal 0 0 -1
    outer loop
      vertex 121.375 90.1133 0
      vertex 129 87.1051 0
      vertex 125 84 0
    endloop
  endfacet
  facet normal 0 0 -1
    outer loop
      vertex 125 84 0
      vertex 129 87.1051 0
      vertex 127.27 84.1231 0
    endloop
  endfacet
  facet normal 0 0 -1
    outer loop
      vertex 129 87.1051 0
      vertex 129.514 84.491 0
      vertex 127.27 84.1231 0
    endloop
  endfacet
  facet normal 0 0 -1
    outer loop
      vertex 129 122.895 0
      vertex 129.514 125.509 0
      vertex 130.816 122.39 0
    endloop
  endfacet
  facet normal 0 0 -1
    outer loop
      vertex 129.514 125.509 0
      vertex 131.705 124.901 0
      vertex 130.816 122.39 0
    endloop
  endfacet
  facet normal 0 0 -1
    outer loop
      vertex 130.816 122.39 0
      vertex 131.705 124.901 0
      vertex 132.57 121.701 0
    endloop
  endfacet
  facet normal 0 0 -1
    outer loop
      vertex 131.705 124.901 0
      vertex 133.818 124.059 0
      vertex 132.57 121.701 0
    endloop
  endfacet
  facet normal 0 0 -1
    outer loop
      vertex 132.57 121.701 0
      vertex 133.818 124.059 0
      vertex 134.244 120.836 0
    endloop
  endfacet
  facet normal 0 0 -1
    outer loop
      vertex 133.818 124.059 0
      vertex 135.827 122.994 0
      vertex 134.244 120.836 0
    endloop
  endfacet
  facet normal 0 0 -1
    outer loop
      vertex 134.244 120.836 0
      vertex 135.827 122.994 0
      vertex 135.82 119.804 0
    endloop
  endfacet
  facet normal 0 0 -1
    outer loop
      vertex 135.827 122.994 0
      vertex 137.709 121.718 0
      vertex 135.82 119.804 0
    endloop
  endfacet
  facet normal 0 0 -1
    outer loop
      vertex 135.82 119.804 0
      vertex 137.709 121.718 0
      vertex 137.283 118.615 0
    endloop
  endfacet
  facet normal 0 0 -1
    outer loop
      vertex 137.709 121.718 0
      vertex 139.442 120.246 0
      vertex 137.283 118.615 0
    endloop
  endfacet
  facet normal 0 0 -1
    outer loop
      vertex 137.283 118.615 0
      vertex 139.442 120.246 0
      vertex 138.615 117.282 0
    endloop
  endfacet
  facet normal 0 0 -1
    outer loop
      vertex 139.442 120.246 0
      vertex 141.005 118.595 0
      vertex 138.615 117.282 0
    endloop
  endfacet
  facet normal 0 0 -1
    outer loop
      vertex 138.615 117.282 0
      vertex 141.005 118.595 0
      vertex 139.804 115.82 0
    endloop
  endfacet
  facet normal 0 0 -1
    outer loop
      vertex 141.005 118.595 0
      vertex 142.382 116.785 0
      vertex 139.804 115.82 0
    endloop
  endfacet
  facet normal 0 0 -1
    outer loop
      vertex 139.804 115.82 0
      vertex 142.382 116.785 0
      vertex 140.836 114.244 0
    endloop
  endfacet
  facet normal 0 0 -1
    outer loop
      vertex 142.382 116.785 0
      vertex 143.554 114.837 0
      vertex 140.836 114.244 0
    endloop
  endfacet
  facet normal 0 0 -1
    outer loop
      vertex 140.836 114.244 0
      vertex 143.554 114.837 0
      vertex 141.701 112.57 0
    endloop
  endfacet
  facet normal 0 0 -1
    outer loop
      vertex 143.554 114.837 0
      vertex 144.508 112.773 0
      vertex 141.701 112.57 0
    endloop
  endfacet
  facet normal 0 0 -1
    outer loop
      vertex 141.701 112.57 0
      vertex 144.508 112.773 0
      vertex 142.39 110.815 0
    endloop
  endfacet
  facet normal 0 0 -1
    outer loop
      vertex 144.508 112.773 0
      vertex 145.234 110.618 0
      vertex 142.39 110.815 0
    endloop
  endfacet
  facet normal 0 0 -1
    outer loop
      vertex 142.39 110.815 0
      vertex 145.234 110.618 0
      vertex 145.723 108.397 0
    endloop
  endfacet
  facet normal 0 0 -1
    outer loop
      vertex 121.375 119.887 0
      vertex 121 122.895 0
      vertex 128.625 119.887 0
    endloop
  endfacet
  facet normal 0 0 -1
    outer loop
      vertex 121 122.895 0
      vertex 125 126 0
      vertex 128.625 119.887 0
    endloop
  endfacet
  facet normal 0 0 -1
    outer loop
      vertex 128.625 119.887 0
      vertex 125 126 0
      vertex 129 122.895 0
    endloop
  endfacet
  facet normal 0 0 -1
    outer loop
      vertex 125 126 0
      vertex 127.27 125.877 0
      vertex 129 122.895 0
    endloop
  endfacet
  facet normal 0 0 -1
    outer loop
      vertex 129 122.895 0
      vertex 127.27 125.877 0
      vertex 129.514 125.509 0
    endloop
  endfacet
  facet normal 0 0 -1
    outer loop
      vertex 119.184 122.39 0
      vertex 120.486 125.509 0
      vertex 121 122.895 0
    endloop
  endfacet
  facet normal 0 0 -1
    outer loop
      vertex 120.486 125.509 0
      vertex 122.729 125.877 0
      vertex 121 122.895 0
    endloop
  endfacet
  facet normal 0 0 -1
    outer loop
      vertex 121 122.895 0
      vertex 122.729 125.877 0
      vertex 125 126 0
    endloop
  endfacet
  facet normal 0 0 -1
    outer loop
      vertex 145.969 106.137 0
      vertex 145.969 103.863 0
      vertex 142.895 101 0
    endloop
  endfacet
  facet normal 0 0 -1
    outer loop
      vertex 145.969 103.863 0
      vertex 145.723 101.603 0
      vertex 142.895 101 0
    endloop
  endfacet
  facet normal 0 0 -1
    outer loop
      vertex 142.895 101 0
      vertex 145.723 101.603 0
      vertex 142.39 99.1845 0
    endloop
  endfacet
  facet normal 0 0 -1
    outer loop
      vertex 145.723 101.603 0
      vertex 145.234 99.3819 0
      vertex 142.39 99.1845 0
    endloop
  endfacet
  facet normal 0 0 -1
    outer loop
      vertex 142.39 99.1845 0
      vertex 145.234 99.3819 0
      vertex 141.701 97.4304 0
    endloop
  endfacet
  facet normal 0 0 -1
    outer loop
      vertex 145.234 99.3819 0
      vertex 144.508 97.2271 0
      vertex 141.701 97.4304 0
    endloop
  endfacet
  facet normal 0 0 -1
    outer loop
      vertex 141.701 97.4304 0
      vertex 144.508 97.2271 0
      vertex 140.836 95.7562 0
    endloop
  endfacet
  facet normal 0 0 -1
    outer loop
      vertex 144.508 97.2271 0
      vertex 143.554 95.1634 0
      vertex 140.836 95.7562 0
    endloop
  endfacet
  facet normal 0 0 -1
    outer loop
      vertex 140.836 95.7562 0
      vertex 143.554 95.1634 0
      vertex 139.804 94.1797 0
    endloop
  endfacet
  facet normal 0 0 -1
    outer loop
      vertex 143.554 95.1634 0
      vertex 142.382 93.2151 0
      vertex 139.804 94.1797 0
    endloop
  endfacet
  facet normal 0 0 -1
    outer loop
      vertex 139.804 94.1797 0
      vertex 142.382 93.2151 0
      vertex 138.615 92.7175 0
    endloop
  endfacet
  facet normal 0 0 -1
    outer loop
      vertex 142.382 93.2151 0
      vertex 141.005 91.4049 0
      vertex 138.615 92.7175 0
    endloop
  endfacet
  facet normal 0 0 -1
    outer loop
      vertex 138.615 92.7175 0
      vertex 141.005 91.4049 0
      vertex 137.283 91.385 0
    endloop
  endfacet
  facet normal 0 0 -1
    outer loop
      vertex 141.005 91.4049 0
      vertex 139.442 89.7541 0
      vertex 137.283 91.385 0
    endloop
  endfacet
  facet normal 0 0 -1
    outer loop
      vertex 137.283 91.385 0
      vertex 139.442 89.7541 0
      vertex 135.82 90.1963 0
    endloop
  endfacet
  facet normal 0 0 -1
    outer loop
      vertex 139.442 89.7541 0
      vertex 137.709 88.2821 0
      vertex 135.82 90.1963 0
    endloop
  endfacet
  facet normal 0 0 -1
    outer loop
      vertex 135.82 90.1963 0
      vertex 137.709 88.2821 0
      vertex 134.244 89.1639 0
    endloop
  endfacet
  facet normal 0 0 -1
    outer loop
      vertex 137.709 88.2821 0
      vertex 135.827 87.006 0
      vertex 134.244 89.1639 0
    endloop
  endfacet
  facet normal 0 0 -1
    outer loop
      vertex 134.244 89.1639 0
      vertex 135.827 87.006 0
      vertex 132.57 88.2988 0
    endloop
  endfacet
  facet normal 0 0 -1
    outer loop
      vertex 135.827 87.006 0
      vertex 133.818 85.9409 0
      vertex 132.57 88.2988 0
    endloop
  endfacet
  facet normal 0 0 -1
    outer loop
      vertex 132.57 88.2988 0
      vertex 133.818 85.9409 0
      vertex 130.816 87.6101 0
    endloop
  endfacet
  facet normal 0 0 -1
    outer loop
      vertex 133.818 85.9409 0
      vertex 131.705 85.0993 0
      vertex 130.816 87.6101 0
    endloop
  endfacet
  facet normal 0 0 -1
    outer loop
      vertex 130.816 87.6101 0
      vertex 131.705 85.0993 0
      vertex 129.514 84.491 0
    endloop
  endfacet
  facet normal 0 0 -1
    outer loop
      vertex 104.031 103.863 0
      vertex 104.031 106.137 0
      vertex 107.105 109 0
    endloop
  endfacet
  facet normal 0 0 -1
    outer loop
      vertex 104.031 106.137 0
      vertex 104.277 108.397 0
      vertex 107.105 109 0
    endloop
  endfacet
  facet normal 0 0 -1
    outer loop
      vertex 107.105 109 0
      vertex 104.277 108.397 0
      vertex 107.61 110.815 0
    endloop
  endfacet
  facet normal 0 0 -1
    outer loop
      vertex 104.277 108.397 0
      vertex 104.765 110.618 0
      vertex 107.61 110.815 0
    endloop
  endfacet
  facet normal 0 0 -1
    outer loop
      vertex 107.61 110.815 0
      vertex 104.765 110.618 0
      vertex 108.299 112.57 0
    endloop
  endfacet
  facet normal 0 0 -1
    outer loop
      vertex 104.765 110.618 0
      vertex 105.491 112.773 0
      vertex 108.299 112.57 0
    endloop
  endfacet
  facet normal 0 0 -1
    outer loop
      vertex 108.299 112.57 0
      vertex 105.491 112.773 0
      vertex 109.164 114.244 0
    endloop
  endfacet
  facet normal 0 0 -1
    outer loop
      vertex 105.491 112.773 0
      vertex 106.446 114.837 0
      vertex 109.164 114.244 0
    endloop
  endfacet
  facet normal 0 0 -1
    outer loop
      vertex 109.164 114.244 0
      vertex 106.446 114.837 0
      vertex 110.196 115.82 0
    endloop
  endfacet
  facet normal 0 0 -1
    outer loop
      vertex 106.446 114.837 0
      vertex 107.618 116.785 0
      vertex 110.196 115.82 0
    endloop
  endfacet
  facet normal 0 0 -1
    outer loop
      vertex 110.196 115.82 0
      vertex 107.618 116.785 0
      vertex 111.385 117.282 0
    endloop
  endfacet
  facet normal 0 0 -1
    outer loop
      vertex 107.618 116.785 0
      vertex 108.995 118.595 0
      vertex 111.385 117.282 0
    endloop
  endfacet
  facet normal 0 0 -1
    outer loop
      vertex 111.385 117.282 0
      vertex 108.995 118.595 0
      vertex 112.717 118.615 0
    endloop
  endfacet
  facet normal 0 0 -1
    outer loop
      vertex 108.995 118.595 0
      vertex 110.558 120.246 0
      vertex 112.717 118.615 0
    endloop
  endfacet
  facet normal 0 0 -1
    outer loop
      vertex 112.717 118.615 0
      vertex 110.558 120.246 0
      vertex 114.18 119.804 0
    endloop
  endfacet
  facet normal 0 0 -1
    outer loop
      vertex 110.558 120.246 0
      vertex 112.291 121.718 0
      vertex 114.18 119.804 0
    endloop
  endfacet
  facet normal 0 0 -1
    outer loop
      vertex 114.18 119.804 0
      vertex 112.291 121.718 0
      vertex 115.756 120.836 0
    endloop
  endfacet
  facet normal 0 0 -1
    outer loop
      vertex 112.291 121.718 0
      vertex 114.173 122.994 0
      vertex 115.756 120.836 0
    endloop
  endfacet
  facet normal 0 0 -1
    outer loop
      vertex 115.756 120.836 0
      vertex 114.173 122.994 0
      vertex 117.43 121.701 0
    endloop
  endfacet
  facet normal 0 0 -1
    outer loop
      vertex 114.173 122.994 0
      vertex 116.182 124.059 0
      vertex 117.43 121.701 0
    endloop
  endfacet
  facet normal 0 0 -1
    outer loop
      vertex 117.43 121.701 0
      vertex 116.182 124.059 0
      vertex 119.184 122.39 0
    endloop
  endfacet
  facet normal 0 0 -1
    outer loop
      vertex 116.182 124.059 0
      vertex 118.295 124.901 0
      vertex 119.184 122.39 0
    endloop
  endfacet
  facet normal 0 0 -1
    outer loop
      vertex 119.184 122.39 0
      vertex 118.295 124.901 0
      vertex 120.486 125.509 0
    endloop
  endfacet
  facet normal 0 0 -1
    outer loop
      vertex 107.105 109 0
      vertex 110.113 108.625 0
      vertex 104.031 103.863 0
    endloop
  endfacet
  facet normal 0 0 -1
    outer loop
      vertex 110.113 108.625 0
      vertex 107.105 101 0
      vertex 104.031 103.863 0
    endloop
  endfacet
  facet normal 0 0 -1
    outer loop
      vertex 104.031 103.863 0
      vertex 107.105 101 0
      vertex 104.277 101.603 0
    endloop
  endfacet
  facet normal 0 0 -1
    outer loop
      vertex 107.105 101 0
      vertex 107.61 99.1845 0
      vertex 104.277 101.603 0
    endloop
  endfacet
  facet normal 0 0 -1
    outer loop
      vertex 125 84 0
      vertex 122.729 84.1231 0
      vertex 121 87.1051 0
    endloop
  endfacet
  facet normal 0 0 -1
    outer loop
      vertex 122.729 84.1231 0
      vertex 120.486 84.491 0
      vertex 121 87.1051 0
    endloop
  endfacet
  facet normal 0 0 -1
    outer loop
      vertex 121 87.1051 0
      vertex 120.486 84.491 0
      vertex 119.184 87.6101 0
    endloop
  endfacet
  facet normal 0 0 -1
    outer loop
      vertex 120.486 84.491 0
      vertex 118.295 85.0993 0
      vertex 119.184 87.6101 0
    endloop
  endfacet
  facet normal 0 0 -1
    outer loop
      vertex 119.184 87.6101 0
      vertex 118.295 85.0993 0
      vertex 117.43 88.2988 0
    endloop
  endfacet
  facet normal 0 0 -1
    outer loop
      vertex 118.295 85.0993 0
      vertex 116.182 85.9409 0
      vertex 117.43 88.2988 0
    endloop
  endfacet
  facet normal 0 0 -1
    outer loop
      vertex 117.43 88.2988 0
      vertex 116.182 85.9409 0
      vertex 115.756 89.1639 0
    endloop
  endfacet
  facet normal 0 0 -1
    outer loop
      vertex 116.182 85.9409 0
      vertex 114.173 87.006 0
      vertex 115.756 89.1639 0
    endloop
  endfacet
  facet normal 0 0 -1
    outer loop
      vertex 115.756 89.1639 0
      vertex 114.173 87.006 0
      vertex 114.18 90.1963 0
    endloop
  endfacet
  facet normal 0 0 -1
    outer loop
      vertex 114.173 87.006 0
      vertex 112.291 88.2821 0
      vertex 114.18 90.1963 0
    endloop
  endfacet
  facet normal 0 0 -1
    outer loop
      vertex 114.18 90.1963 0
      vertex 112.291 88.2821 0
      vertex 112.717 91.385 0
    endloop
  endfacet
  facet normal 0 0 -1
    outer loop
      vertex 112.291 88.2821 0
      vertex 110.558 89.7541 0
      vertex 112.717 91.385 0
    endloop
  endfacet
  facet normal 0 0 -1
    outer loop
      vertex 112.717 91.385 0
      vertex 110.558 89.7541 0
      vertex 111.385 92.7175 0
    endloop
  endfacet
  facet normal 0 0 -1
    outer loop
      vertex 110.558 89.7541 0
      vertex 108.995 91.4049 0
      vertex 111.385 92.7175 0
    endloop
  endfacet
  facet normal 0 0 -1
    outer loop
      vertex 111.385 92.7175 0
      vertex 108.995 91.4049 0
      vertex 110.196 94.1797 0
    endloop
  endfacet
  facet normal 0 0 -1
    outer loop
      vertex 108.995 91.4049 0
      vertex 107.618 93.2151 0
      vertex 110.196 94.1797 0
    endloop
  endfacet
  facet normal 0 0 -1
    outer loop
      vertex 110.196 94.1797 0
      vertex 107.618 93.2151 0
      vertex 109.164 95.7562 0
    endloop
  endfacet
  facet normal 0 0 -1
    outer loop
      vertex 107.618 93.2151 0
      vertex 106.446 95.1634 0
      vertex 109.164 95.7562 0
    endloop
  endfacet
  facet normal 0 0 -1
    outer loop
      vertex 109.164 95.7562 0
      vertex 106.446 95.1634 0
      vertex 108.299 97.4304 0
    endloop
  endfacet
  facet normal 0 0 -1
    outer loop
      vertex 106.446 95.1634 0
      vertex 105.491 97.2271 0
      vertex 108.299 97.4304 0
    endloop
  endfacet
  facet normal 0 0 -1
    outer loop
      vertex 108.299 97.4304 0
      vertex 105.491 97.2271 0
      vertex 107.61 99.1845 0
    endloop
  endfacet
  facet normal 0 0 -1
    outer loop
      vertex 105.491 97.2271 0
      vertex 104.765 99.3819 0
      vertex 107.61 99.1845 0
    endloop
  endfacet
  facet normal 0 0 -1
    outer loop
      vertex 107.61 99.1845 0
      vertex 104.765 99.3819 0
      vertex 104.277 101.603 0
    endloop
  endfacet
  facet normal 0.0541377 0.998533 0
    outer loop
      vertex 125 126 0
      vertex 127.27 125.877 5
      vertex 127.27 125.877 0
    endloop
  endfacet
  facet normal 0.161797 0.986824 0
    outer loop
      vertex 127.27 125.877 5
      vertex 129.514 125.509 5
      vertex 127.27 125.877 0
    endloop
  endfacet
  facet normal 0.161797 0.986824 0
    outer loop
      vertex 127.27 125.877 0
      vertex 129.514 125.509 5
      vertex 129.514 125.509 0
    endloop
  endfacet
  facet normal 0.267522 0.963552 0
    outer loop
      vertex 129.514 125.509 5
      vertex 131.705 124.901 5
      vertex 129.514 125.509 0
    endloop
  endfacet
  facet normal 0.267522 0.963552 0
    outer loop
      vertex 129.514 125.509 0
      vertex 131.705 124.901 5
      vertex 131.705 124.901 0
    endloop
  endfacet
  facet normal 0.370125 0.928982 0
    outer loop
      vertex 131.705 124.901 5
      vertex 133.818 124.059 5
      vertex 131.705 124.901 0
    endloop
  endfacet
  facet normal 0.370125 0.928982 0
    outer loop
      vertex 131.705 124.901 0
      vertex 133.818 124.059 5
      vertex 133.818 124.059 0
    endloop
  endfacet
  facet normal 0.46842 0.883506 0
    outer loop
      vertex 133.818 124.059 5
      vertex 135.827 122.994 5
      vertex 133.818 124.059 0
    endloop
  endfacet
  facet normal 0.46842 0.883506 0
    outer loop
      vertex 133.818 124.059 0
      vertex 135.827 122.994 5
      vertex 135.827 122.994 0
    endloop
  endfacet
  facet normal 0.561159 0.827708 0
    outer loop
      vertex 135.827 122.994 5
      vertex 137.709 121.718 5
      vertex 135.827 122.994 0
    endloop
  endfacet
  facet normal 0.561159 0.827708 0
    outer loop
      vertex 135.827 122.994 0
      vertex 137.709 121.718 5
      vertex 137.709 121.718 0
    endloop
  endfacet
  facet normal 0.647406 0.762146 0
    outer loop
      vertex 137.709 121.718 5
      vertex 139.442 120.246 5
      vertex 137.709 121.718 0
    endloop
  endfacet
  facet normal 0.647406 0.762146 0
    outer loop
      vertex 137.709 121.718 0
      vertex 139.442 120.246 5
      vertex 139.442 120.246 0
    endloop
  endfacet
  facet normal 0.726 0.687694 0
    outer loop
      vertex 139.442 120.246 5
      vertex 141.005 118.595 5
      vertex 139.442 120.246 0
    endloop
  endfacet
  facet normal 0.726 0.687694 0
    outer loop
      vertex 139.442 120.246 0
      vertex 141.005 118.595 5
      vertex 141.005 118.595 0
    endloop
  endfacet
  facet normal 0.796088 0.605181 0
    outer loop
      vertex 141.005 118.595 5
      vertex 142.382 116.785 5
      vertex 141.005 118.595 0
    endloop
  endfacet
  facet normal 0.796088 0.605181 0
    outer loop
      vertex 141.005 118.595 0
      vertex 142.382 116.785 5
      vertex 142.382 116.785 0
    endloop
  endfacet
  facet normal 0.856848 0.515569 0
    outer loop
      vertex 142.382 116.785 5
      vertex 143.554 114.837 5
      vertex 142.382 116.785 0
    endloop
  endfacet
  facet normal 0.856848 0.515569 0
    outer loop
      vertex 142.382 116.785 0
      vertex 143.554 114.837 5
      vertex 143.554 114.837 0
    endloop
  endfacet
  facet normal 0.907587 0.419864 0
    outer loop
      vertex 143.554 114.837 5
      vertex 144.508 112.773 5
      vertex 143.554 114.837 0
    endloop
  endfacet
  facet normal 0.907587 0.419864 0
    outer loop
      vertex 143.554 114.837 0
      vertex 144.508 112.773 5
      vertex 144.508 112.773 0
    endloop
  endfacet
  facet normal 0.947658 0.319288 0
    outer loop
      vertex 144.508 112.773 5
      vertex 145.234 110.618 5
      vertex 144.508 112.773 0
    endloop
  endfacet
  facet normal 0.947658 0.319288 0
    outer loop
      vertex 144.508 112.773 0
      vertex 145.234 110.618 5
      vertex 145.234 110.618 0
    endloop
  endfacet
  facet normal 0.976613 0.215007 0
    outer loop
      vertex 145.234 110.618 5
      vertex 145.723 108.397 5
      vertex 145.234 110.618 0
    endloop
  endfacet
  facet normal 0.976613 0.215007 0
    outer loop
      vertex 145.234 110.618 0
      vertex 145.723 108.397 5
      vertex 145.723 108.397 0
    endloop
  endfacet
  facet normal 0.99414 0.1081 0
    outer loop
      vertex 145.723 108.397 5
      vertex 145.969 106.137 5
      vertex 145.723 108.397 0
    endloop
  endfacet
  facet normal 0.99414 0.1081 0
    outer loop
      vertex 145.723 108.397 0
      vertex 145.969 106.137 5
      vertex 145.969 106.137 0
    endloop
  endfacet
  facet normal 1 0 0
    outer loop
      vertex 145.969 106.137 5
      vertex 145.969 103.863 5
      vertex 145.969 106.137 0
    endloop
  endfacet
  facet normal 1 0 0
    outer loop
      vertex 145.969 106.137 0
      vertex 145.969 103.863 5
      vertex 145.969 103.863 0
    endloop
  endfacet
  facet normal 0.99414 -0.108099 0
    outer loop
      vertex 145.969 103.863 5
      vertex 145.723 101.603 5
      vertex 145.969 103.863 0
    endloop
  endfacet
  facet normal 0.99414 -0.108099 0
    outer loop
      vertex 145.969 103.863 0
      vertex 145.723 101.603 5
      vertex 145.723 101.603 0
    endloop
  endfacet
  facet normal 0.976612 -0.215008 0
    outer loop
      vertex 145.723 101.603 5
      vertex 145.234 99.3819 5
      vertex 145.723 101.603 0
    endloop
  endfacet
  facet normal 0.976612 -0.215008 0
    outer loop
      vertex 145.723 101.603 0
      vertex 145.234 99.3819 5
      vertex 145.234 99.3819 0
    endloop
  endfacet
  facet normal 0.947658 -0.319288 0
    outer loop
      vertex 145.234 99.3819 5
      vertex 144.508 97.2271 5
      vertex 145.234 99.3819 0
    endloop
  endfacet
  facet normal 0.947658 -0.319288 0
    outer loop
      vertex 145.234 99.3819 0
      vertex 144.508 97.2271 5
      vertex 144.508 97.2271 0
    endloop
  endfacet
  facet normal 0.907586 -0.419867 0
    outer loop
      vertex 144.508 97.2271 5
      vertex 143.554 95.1634 5
      vertex 144.508 97.2271 0
    endloop
  endfacet
  facet normal 0.907586 -0.419867 0
    outer loop
      vertex 144.508 97.2271 0
      vertex 143.554 95.1634 5
      vertex 143.554 95.1634 0
    endloop
  endfacet
  facet normal 0.856854 -0.515559 0
    outer loop
      vertex 143.554 95.1634 5
      vertex 142.382 93.2151 5
      vertex 143.554 95.1634 0
    endloop
  endfacet
  facet normal 0.856854 -0.515559 0
    outer loop
      vertex 143.554 95.1634 0
      vertex 142.382 93.2151 5
      vertex 142.382 93.2151 0
    endloop
  endfacet
  facet normal 0.796085 -0.605184 0
    outer loop
      vertex 142.382 93.2151 5
      vertex 141.005 91.4049 5
      vertex 142.382 93.2151 0
    endloop
  endfacet
  facet normal 0.796085 -0.605184 0
    outer loop
      vertex 142.382 93.2151 0
      vertex 141.005 91.4049 5
      vertex 141.005 91.4049 0
    endloop
  endfacet
  facet normal 0.726 -0.687695 0
    outer loop
      vertex 141.005 91.4049 5
      vertex 139.442 89.7541 5
      vertex 141.005 91.4049 0
    endloop
  endfacet
  facet normal 0.726 -0.687695 0
    outer loop
      vertex 141.005 91.4049 0
      vertex 139.442 89.7541 5
      vertex 139.442 89.7541 0
    endloop
  endfacet
  facet normal 0.647391 -0.762158 0
    outer loop
      vertex 139.442 89.7541 5
      vertex 137.709 88.2821 5
      vertex 139.442 89.7541 0
    endloop
  endfacet
  facet normal 0.647391 -0.762158 0
    outer loop
      vertex 139.442 89.7541 0
      vertex 137.709 88.2821 5
      vertex 137.709 88.2821 0
    endloop
  endfacet
  facet normal 0.561173 -0.827698 0
    outer loop
      vertex 137.709 88.2821 5
      vertex 135.827 87.006 5
      vertex 137.709 88.2821 0
    endloop
  endfacet
  facet normal 0.561173 -0.827698 0
    outer loop
      vertex 137.709 88.2821 0
      vertex 135.827 87.006 5
      vertex 135.827 87.006 0
    endloop
  endfacet
  facet normal 0.468413 -0.88351 0
    outer loop
      vertex 135.827 87.006 5
      vertex 133.818 85.9409 5
      vertex 135.827 87.006 0
    endloop
  endfacet
  facet normal 0.468413 -0.88351 0
    outer loop
      vertex 135.827 87.006 0
      vertex 133.818 85.9409 5
      vertex 133.818 85.9409 0
    endloop
  endfacet
  facet normal 0.370141 -0.928976 0
    outer loop
      vertex 133.818 85.9409 5
      vertex 131.705 85.0993 5
      vertex 133.818 85.9409 0
    endloop
  endfacet
  facet normal 0.370141 -0.928976 0
    outer loop
      vertex 133.818 85.9409 0
      vertex 131.705 85.0993 5
      vertex 131.705 85.0993 0
    endloop
  endfacet
  facet normal 0.267527 -0.96355 0
    outer loop
      vertex 131.705 85.0993 5
      vertex 129.514 84.491 5
      vertex 131.705 85.0993 0
    endloop
  endfacet
  facet normal 0.267527 -0.96355 0
    outer loop
      vertex 131.705 85.0993 0
      vertex 129.514 84.491 5
      vertex 129.514 84.491 0
    endloop
  endfacet
  facet normal 0.161784 -0.986826 0
    outer loop
      vertex 129.514 84.491 5
      vertex 127.27 84.1231 5
      vertex 129.514 84.491 0
    endloop
  endfacet
  facet normal 0.161784 -0.986826 0
    outer loop
      vertex 129.514 84.491 0
      vertex 127.27 84.1231 5
      vertex 127.27 84.1231 0
    endloop
  endfacet
  facet normal 0.0541377 -0.998533 0
    outer loop
      vertex 127.27 84.1231 5
      vertex 125 84 5
      vertex 127.27 84.1231 0
    endloop
  endfacet
  facet normal 0.0541377 -0.998533 0
    outer loop
      vertex 127.27 84.1231 0
      vertex 125 84 5
      vertex 125 84 0
    endloop
  endfacet
  facet normal -0.0541377 -0.998533 0
    outer loop
      vertex 125 84 5
      vertex 122.729 84.1231 5
      vertex 125 84 0
    endloop
  endfacet
  facet normal -0.0541377 -0.998533 0
    outer loop
      vertex 125 84 0
      vertex 122.729 84.1231 5
      vertex 122.729 84.1231 0
    endloop
  endfacet
  facet normal -0.161784 -0.986826 0
    outer loop
      vertex 122.729 84.1231 5
      vertex 120.486 84.491 5
      vertex 122.729 84.1231 0
    endloop
  endfacet
  facet normal -0.161784 -0.986826 0
    outer loop
      vertex 122.729 84.1231 0
      vertex 120.486 84.491 5
      vertex 120.486 84.491 0
    endloop
  endfacet
  facet normal -0.267527 -0.96355 0
    outer loop
      vertex 120.486 84.491 5
      vertex 118.295 85.0993 5
      vertex 120.486 84.491 0
    endloop
  endfacet
  facet normal -0.267527 -0.96355 0
    outer loop
      vertex 120.486 84.491 0
      vertex 118.295 85.0993 5
      vertex 118.295 85.0993 0
    endloop
  endfacet
  facet normal -0.370141 -0.928976 0
    outer loop
      vertex 118.295 85.0993 5
      vertex 116.182 85.9409 5
      vertex 118.295 85.0993 0
    endloop
  endfacet
  facet normal -0.370141 -0.928976 0
    outer loop
      vertex 118.295 85.0993 0
      vertex 116.182 85.9409 5
      vertex 116.182 85.9409 0
    endloop
  endfacet
  facet normal -0.468413 -0.88351 0
    outer loop
      vertex 116.182 85.9409 5
      vertex 114.173 87.006 5
      vertex 116.182 85.9409 0
    endloop
  endfacet
  facet normal -0.468413 -0.88351 0
    outer loop
      vertex 116.182 85.9409 0
      vertex 114.173 87.006 5
      vertex 114.173 87.006 0
    endloop
  endfacet
  facet normal -0.561173 -0.827698 0
    outer loop
      vertex 114.173 87.006 5
      vertex 112.291 88.2821 5
      vertex 114.173 87.006 0
    endloop
  endfacet
  facet normal -0.561173 -0.827698 0
    outer loop
      vertex 114.173 87.006 0
      vertex 112.291 88.2821 5
      vertex 112.291 88.2821 0
    endloop
  endfacet
  facet normal -0.647391 -0.762158 0
    outer loop
      vertex 112.291 88.2821 5
      vertex 110.558 89.7541 5
      vertex 112.291 88.2821 0
    endloop
  endfacet
  facet normal -0.647391 -0.762158 0
    outer loop
      vertex 112.291 88.2821 0
      vertex 110.558 89.7541 5
      vertex 110.558 89.7541 0
    endloop
  endfacet
  facet normal -0.726 -0.687695 0
    outer loop
      vertex 110.558 89.7541 5
      vertex 108.995 91.4049 5
      vertex 110.558 89.7541 0
    endloop
  endfacet
  facet normal -0.726 -0.687695 0
    outer loop
      vertex 110.558 89.7541 0
      vertex 108.995 91.4049 5
      vertex 108.995 91.4049 0
    endloop
  endfacet
  facet normal -0.796085 -0.605184 0
    outer loop
      vertex 108.995 91.4049 5
      vertex 107.618 93.2151 5
      vertex 108.995 91.4049 0
    endloop
  endfacet
  facet normal -0.796085 -0.605184 0
    outer loop
      vertex 108.995 91.4049 0
      vertex 107.618 93.2151 5
      vertex 107.618 93.2151 0
    endloop
  endfacet
  facet normal -0.856854 -0.515559 0
    outer loop
      vertex 107.618 93.2151 5
      vertex 106.446 95.1634 5
      vertex 107.618 93.2151 0
    endloop
  endfacet
  facet normal -0.856854 -0.515559 0
    outer loop
      vertex 107.618 93.2151 0
      vertex 106.446 95.1634 5
      vertex 106.446 95.1634 0
    endloop
  endfacet
  facet normal -0.907586 -0.419867 0
    outer loop
      vertex 106.446 95.1634 5
      vertex 105.491 97.2271 5
      vertex 106.446 95.1634 0
    endloop
  endfacet
  facet normal -0.907586 -0.419867 0
    outer loop
      vertex 106.446 95.1634 0
      vertex 105.491 97.2271 5
      vertex 105.491 97.2271 0
    endloop
  endfacet
  facet normal -0.947658 -0.319288 0
    outer loop
      vertex 105.491 97.2271 5
      vertex 104.765 99.3819 5
      vertex 105.491 97.2271 0
    endloop
  endfacet
  facet normal -0.947658 -0.319288 0
    outer loop
      vertex 105.491 97.2271 0
      vertex 104.765 99.3819 5
      vertex 104.765 99.3819 0
    endloop
  endfacet
  facet normal -0.976612 -0.215008 0
    outer loop
      vertex 104.765 99.3819 5
      vertex 104.277 101.603 5
      vertex 104.765 99.3819 0
    endloop
  endfacet
  facet normal -0.976612 -0.215008 0
    outer loop
      vertex 104.765 99.3819 0
      vertex 104.277 101.603 5
      vertex 104.277 101.603 0
    endloop
  endfacet
  facet normal -0.99414 -0.108099 0
    outer loop
      vertex 104.277 101.603 5
      vertex 104.031 103.863 5
      vertex 104.277 101.603 0
    endloop
  endfacet
  facet normal -0.99414 -0.108099 0
    outer loop
      vertex 104.277 101.603 0
      vertex 104.031 103.863 5
      vertex 104.031 103.863 0
    endloop
  endfacet
  facet normal -1 0 0
    outer loop
      vertex 104.031 103.863 5
      vertex 104.031 106.137 5
      vertex 104.031 103.863 0
    endloop
  endfacet
  facet normal -1 0 0
    outer loop
      vertex 104.031 103.863 0
      vertex 104.031 106.137 5
      vertex 104.031 106.137 0
    endloop
  endfacet
  facet normal -0.99414 0.1081 0
    outer loop
      vertex 104.031 106.137 5
      vertex 104.277 108.397 5
      vertex 104.031 106.137 0
    endloop
  endfacet
  facet normal -0.99414 0.1081 0
    outer loop
      vertex 104.031 106.137 0
      vertex 104.277 108.397 5
      vertex 104.277 108.397 0
    endloop
  endfacet
  facet normal -0.976613 0.215007 0
    outer loop
      vertex 104.277 108.397 5
      vertex 104.765 110.618 5
      vertex 104.277 108.397 0
    endloop
  endfacet
  facet normal -0.976613 0.215007 0
    outer loop
      vertex 104.277 108.397 0
      vertex 104.765 110.618 5
      vertex 104.765 110.618 0
    endloop
  endfacet
  facet normal -0.947658 0.319288 0
    outer loop
      vertex 104.765 110.618 5
      vertex 105.491 112.773 5
      vertex 104.765 110.618 0
    endloop
  endfacet
  facet normal -0.947658 0.319288 0
    outer loop
      vertex 104.765 110.618 0
      vertex 105.491 112.773 5
      vertex 105.491 112.773 0
    endloop
  endfacet
  facet normal -0.907587 0.419864 0
    outer loop
      vertex 105.491 112.773 5
      vertex 106.446 114.837 5
      vertex 105.491 112.773 0
    endloop
  endfacet
  facet normal -0.907587 0.419864 0
    outer loop
      vertex 105.491 112.773 0
      vertex 106.446 114.837 5
      vertex 106.446 114.837 0
    endloop
  endfacet
  facet normal -0.856848 0.515569 0
    outer loop
      vertex 106.446 114.837 5
      vertex 107.618 116.785 5
      vertex 106.446 114.837 0
    endloop
  endfacet
  facet normal -0.856848 0.515569 0
    outer loop
      vertex 106.446 114.837 0
      vertex 107.618 116.785 5
      vertex 107.618 116.785 0
    endloop
  endfacet
  facet normal -0.796088 0.605181 0
    outer loop
      vertex 107.618 116.785 5
      vertex 108.995 118.595 5
      vertex 107.618 116.785 0
    endloop
  endfacet
  facet normal -0.796088 0.605181 0
    outer loop
      vertex 107.618 116.785 0
      vertex 108.995 118.595 5
      vertex 108.995 118.595 0
    endloop
  endfacet
  facet normal -0.726 0.687694 0
    outer loop
      vertex 108.995 118.595 5
      vertex 110.558 120.246 5
      vertex 108.995 118.595 0
    endloop
  endfacet
  facet normal -0.726 0.687694 0
    outer loop
      vertex 108.995 118.595 0
      vertex 110.558 120.246 5
      vertex 110.558 120.246 0
    endloop
  endfacet
  facet normal -0.647406 0.762146 0
    outer loop
      vertex 110.558 120.246 5
      vertex 112.291 121.718 5
      vertex 110.558 120.246 0
    endloop
  endfacet
  facet normal -0.647406 0.762146 0
    outer loop
      vertex 110.558 120.246 0
      vertex 112.291 121.718 5
      vertex 112.291 121.718 0
    endloop
  endfacet
  facet normal -0.561159 0.827708 0
    outer loop
      vertex 112.291 121.718 5
      vertex 114.173 122.994 5
      vertex 112.291 121.718 0
    endloop
  endfacet
  facet normal -0.561159 0.827708 0
    outer loop
      vertex 112.291 121.718 0
      vertex 114.173 122.994 5
      vertex 114.173 122.994 0
    endloop
  endfacet
  facet normal -0.46842 0.883506 0
    outer loop
      vertex 114.173 122.994 5
      vertex 116.182 124.059 5
      vertex 114.173 122.994 0
    endloop
  endfacet
  facet normal -0.46842 0.883506 0
    outer loop
      vertex 114.173 122.994 0
      vertex 116.182 124.059 5
      vertex 116.182 124.059 0
    endloop
  endfacet
  facet normal -0.370125 0.928982 0
    outer loop
      vertex 116.182 124.059 5
      vertex 118.295 124.901 5
      vertex 116.182 124.059 0
    endloop
  endfacet
  facet normal -0.370125 0.928982 0
    outer loop
      vertex 116.182 124.059 0
      vertex 118.295 124.901 5
      vertex 118.295 124.901 0
    endloop
  endfacet
  facet normal -0.267522 0.963552 0
    outer loop
      vertex 118.295 124.901 5
      vertex 120.486 125.509 5
      vertex 118.295 124.901 0
    endloop
  endfacet
  facet normal -0.267522 0.963552 0
    outer loop
      vertex 118.295 124.901 0
      vertex 120.486 125.509 5
      vertex 120.486 125.509 0
    endloop
  endfacet
  facet normal -0.161797 0.986824 0
    outer loop
      vertex 120.486 125.509 5
      vertex 122.729 125.877 5
      vertex 120.486 125.509 0
    endloop
  endfacet
  facet normal -0.161797 0.986824 0
    outer loop
      vertex 120.486 125.509 0
      vertex 122.729 125.877 5
      vertex 122.729 125.877 0
    endloop
  endfacet
  facet normal -0.0541377 0.998533 0
    outer loop
      vertex 122.729 125.877 5
      vertex 125 126 5
      vertex 122.729 125.877 0
    endloop
  endfacet
  facet normal -0.0541377 0.998533 0
    outer loop
      vertex 122.729 125.877 0
      vertex 125 126 5
      vertex 125 126 0
    endloop
  endfacet
  facet normal 0.0541377 0.998533 5.56917e-17
    outer loop
      vertex 125 126 5
      vertex 127.27 125.877 5
      vertex 125 126 0
    endloop
  endfacet
  facet normal 0.123786 -0.992309 0
    outer loop
      vertex 107.105 101 5
      vertex 107.105 101 0
      vertex 110.113 101.375 0
    endloop
  endfacet
  facet normal 0.12378 -0.99231 0
    outer loop
      vertex 111.113 101.5 1
      vertex 111.113 101.5 4
      vertex 110.113 101.375 0
    endloop
  endfacet
  facet normal 0.12378 -0.99231 0
    outer loop
      vertex 111.113 101.5 4
      vertex 110.113 101.375 5
      vertex 110.113 101.375 0
    endloop
  endfacet
  facet normal 0.123786 -0.992309 0
    outer loop
      vertex 110.113 101.375 0
      vertex 110.113 101.375 5
      vertex 107.105 101 5
    endloop
  endfacet
  facet normal 0.268003 0.963418 0
    outer loop
      vertex 121 87.1051 5
      vertex 121 87.1051 0
      vertex 119.184 87.6101 5
    endloop
  endfacet
  facet normal 0.268003 0.963418 0
    outer loop
      vertex 121 87.1051 0
      vertex 119.184 87.6101 0
      vertex 119.184 87.6101 5
    endloop
  endfacet
  facet normal 0.36547 0.930823 0
    outer loop
      vertex 119.184 87.6101 5
      vertex 119.184 87.6101 0
      vertex 117.43 88.2988 5
    endloop
  endfacet
  facet normal 0.36547 0.930823 0
    outer loop
      vertex 119.184 87.6101 0
      vertex 117.43 88.2988 0
      vertex 117.43 88.2988 5
    endloop
  endfacet
  facet normal 0.459074 0.888398 0
    outer loop
      vertex 117.43 88.2988 5
      vertex 117.43 88.2988 0
      vertex 115.756 89.1639 5
    endloop
  endfacet
  facet normal 0.459074 0.888398 0
    outer loop
      vertex 117.43 88.2988 0
      vertex 115.756 89.1639 0
      vertex 115.756 89.1639 5
    endloop
  endfacet
  facet normal 0.547821 0.836595 0
    outer loop
      vertex 115.756 89.1639 5
      vertex 115.756 89.1639 0
      vertex 114.18 90.1963 5
    endloop
  endfacet
  facet normal 0.547821 0.836595 0
    outer loop
      vertex 115.756 89.1639 0
      vertex 114.18 90.1963 0
      vertex 114.18 90.1963 5
    endloop
  endfacet
  facet normal 0.630807 0.77594 0
    outer loop
      vertex 114.18 90.1963 5
      vertex 114.18 90.1963 0
      vertex 112.717 91.385 5
    endloop
  endfacet
  facet normal 0.630807 0.77594 0
    outer loop
      vertex 114.18 90.1963 0
      vertex 112.717 91.385 0
      vertex 112.717 91.385 5
    endloop
  endfacet
  facet normal 0.707109 0.707104 0
    outer loop
      vertex 112.717 91.385 5
      vertex 112.717 91.385 0
      vertex 111.385 92.7175 5
    endloop
  endfacet
  facet normal 0.707109 0.707104 0
    outer loop
      vertex 112.717 91.385 0
      vertex 111.385 92.7175 0
      vertex 111.385 92.7175 5
    endloop
  endfacet
  facet normal 0.775949 0.630796 0
    outer loop
      vertex 111.385 92.7175 5
      vertex 111.385 92.7175 0
      vertex 110.196 94.1797 5
    endloop
  endfacet
  facet normal 0.775949 0.630796 0
    outer loop
      vertex 111.385 92.7175 0
      vertex 110.196 94.1797 0
      vertex 110.196 94.1797 5
    endloop
  endfacet
  facet normal 0.836581 0.547843 0
    outer loop
      vertex 110.196 94.1797 5
      vertex 110.196 94.1797 0
      vertex 109.164 95.7562 5
    endloop
  endfacet
  facet normal 0.836581 0.547843 0
    outer loop
      vertex 110.196 94.1797 0
      vertex 109.164 95.7562 0
      vertex 109.164 95.7562 5
    endloop
  endfacet
  facet normal 0.888398 0.459074 0
    outer loop
      vertex 109.164 95.7562 5
      vertex 109.164 95.7562 0
      vertex 108.299 97.4304 5
    endloop
  endfacet
  facet normal 0.888398 0.459074 0
    outer loop
      vertex 109.164 95.7562 0
      vertex 108.299 97.4304 0
      vertex 108.299 97.4304 5
    endloop
  endfacet
  facet normal 0.930825 0.365465 0
    outer loop
      vertex 108.299 97.4304 5
      vertex 108.299 97.4304 0
      vertex 107.61 99.1845 5
    endloop
  endfacet
  facet normal 0.930825 0.365465 0
    outer loop
      vertex 108.299 97.4304 0
      vertex 107.61 99.1845 0
      vertex 107.61 99.1845 5
    endloop
  endfacet
  facet normal 0.963424 0.267983 0
    outer loop
      vertex 107.61 99.1845 5
      vertex 107.61 99.1845 0
      vertex 107.105 101 5
    endloop
  endfacet
  facet normal 0.963424 0.267983 0
    outer loop
      vertex 107.61 99.1845 0
      vertex 107.105 101 0
      vertex 107.105 101 5
    endloop
  endfacet
  facet normal 1 0 0
    outer loop
      vertex 111.113 108.5 1
      vertex 111.113 108.5 4
      vertex 111.113 101.5 1
    endloop
  endfacet
  facet normal 1 0 0
    outer loop
      vertex 111.113 108.5 4
      vertex 111.113 101.5 4
      vertex 111.113 101.5 1
    endloop
  endfacet
  facet normal 0.1238 0.992307 0
    outer loop
      vertex 107.105 109 0
      vertex 107.105 109 5
      vertex 110.113 108.625 5
    endloop
  endfacet
  facet normal 0.12374 0.992315 0
    outer loop
      vertex 111.113 108.5 4
      vertex 111.113 108.5 1
      vertex 110.113 108.625 5
    endloop
  endfacet
  facet normal 0.12374 0.992315 0
    outer loop
      vertex 111.113 108.5 1
      vertex 110.113 108.625 0
      vertex 110.113 108.625 5
    endloop
  endfacet
  facet normal 0.1238 0.992307 0
    outer loop
      vertex 110.113 108.625 5
      vertex 110.113 108.625 0
      vertex 107.105 109 0
    endloop
  endfacet
  facet normal -0.992309 -0.123786 0
    outer loop
      vertex 121 122.895 5
      vertex 121 122.895 0
      vertex 121.375 119.887 0
    endloop
  endfacet
  facet normal -0.99231 -0.123781 0
    outer loop
      vertex 121.5 118.887 1
      vertex 121.5 118.887 4
      vertex 121.375 119.887 0
    endloop
  endfacet
  facet normal -0.99231 -0.123781 0
    outer loop
      vertex 121.5 118.887 4
      vertex 121.375 119.887 5
      vertex 121.375 119.887 0
    endloop
  endfacet
  facet normal -0.992309 -0.123786 0
    outer loop
      vertex 121.375 119.887 0
      vertex 121.375 119.887 5
      vertex 121 122.895 5
    endloop
  endfacet
  facet normal 0 0 1
    outer loop
      vertex 129 87.1051 5
      vertex 128.625 90.1133 5
      vertex 121.375 90.1133 5
    endloop
  endfacet
  facet normal 0 0 1
    outer loop
      vertex 121.375 90.1133 5
      vertex 121 87.1051 5
      vertex 122.729 84.1231 5
    endloop
  endfacet
  facet normal 0 0 1
    outer loop
      vertex 121 122.895 5
      vertex 121.375 119.887 5
      vertex 128.625 119.887 5
    endloop
  endfacet
  facet normal 0 0 1
    outer loop
      vertex 145.969 106.137 5
      vertex 139.887 101.375 5
      vertex 145.969 103.863 5
    endloop
  endfacet
  facet normal 0 0 1
    outer loop
      vertex 139.887 101.375 5
      vertex 142.895 101 5
      vertex 145.969 103.863 5
    endloop
  endfacet
  facet normal 0 0 1
    outer loop
      vertex 145.969 103.863 5
      vertex 142.895 101 5
      vertex 145.723 101.603 5
    endloop
  endfacet
  facet normal 0 0 1
    outer loop
      vertex 142.895 101 5
      vertex 142.39 99.1845 5
      vertex 145.723 101.603 5
    endloop
  endfacet
  facet normal 0 0 1
    outer loop
      vertex 128.625 119.887 5
      vertex 129 122.895 5
      vertex 127.27 125.877 5
    endloop
  endfacet
  facet normal 0 0 1
    outer loop
      vertex 122.729 84.1231 5
      vertex 121 87.1051 5
      vertex 120.486 84.491 5
    endloop
  endfacet
  facet normal 0 0 1
    outer loop
      vertex 121 87.1051 5
      vertex 119.184 87.6101 5
      vertex 120.486 84.491 5
    endloop
  endfacet
  facet normal 0 0 1
    outer loop
      vertex 120.486 84.491 5
      vertex 119.184 87.6101 5
      vertex 118.295 85.0993 5
    endloop
  endfacet
  facet normal 0 0 1
    outer loop
      vertex 127.27 125.877 5
      vertex 129 122.895 5
      vertex 129.514 125.509 5
    endloop
  endfacet
  facet normal 0 0 1
    outer loop
      vertex 129 122.895 5
      vertex 130.816 122.39 5
      vertex 129.514 125.509 5
    endloop
  endfacet
  facet normal 0 0 1
    outer loop
      vertex 129.514 125.509 5
      vertex 130.816 122.39 5
      vertex 131.705 124.901 5
    endloop
  endfacet
  facet normal 0 0 1
    outer loop
      vertex 104.031 103.863 5
      vertex 110.113 108.625 5
      vertex 104.031 106.137 5
    endloop
  endfacet
  facet normal 0 0 1
    outer loop
      vertex 110.113 108.625 5
      vertex 107.105 109 5
      vertex 104.031 106.137 5
    endloop
  endfacet
  facet normal 0 0 1
    outer loop
      vertex 104.031 106.137 5
      vertex 107.105 109 5
      vertex 104.277 108.397 5
    endloop
  endfacet
  facet normal 0 0 1
    outer loop
      vertex 107.105 109 5
      vertex 107.61 110.815 5
      vertex 104.277 108.397 5
    endloop
  endfacet
  facet normal 0 0 1
    outer loop
      vertex 127.27 125.877 5
      vertex 125 126 5
      vertex 128.625 119.887 5
    endloop
  endfacet
  facet normal 0 0 1
    outer loop
      vertex 125 126 5
      vertex 122.729 125.877 5
      vertex 128.625 119.887 5
    endloop
  endfacet
  facet normal 0 0 1
    outer loop
      vertex 128.625 119.887 5
      vertex 122.729 125.877 5
      vertex 121 122.895 5
    endloop
  endfacet
  facet normal 0 0 1
    outer loop
      vertex 122.729 125.877 5
      vertex 120.486 125.509 5
      vertex 121 122.895 5
    endloop
  endfacet
  facet normal 0 0 1
    outer loop
      vertex 121 122.895 5
      vertex 120.486 125.509 5
      vertex 119.184 122.39 5
    endloop
  endfacet
  facet normal 0 0 1
    outer loop
      vertex 120.486 125.509 5
      vertex 118.295 124.901 5
      vertex 119.184 122.39 5
    endloop
  endfacet
  facet normal 0 0 1
    outer loop
      vertex 119.184 122.39 5
      vertex 118.295 124.901 5
      vertex 117.43 121.701 5
    endloop
  endfacet
  facet normal 0 0 1
    outer loop
      vertex 118.295 124.901 5
      vertex 116.182 124.059 5
      vertex 117.43 121.701 5
    endloop
  endfacet
  facet normal 0 0 1
    outer loop
      vertex 117.43 121.701 5
      vertex 116.182 124.059 5
      vertex 115.756 120.836 5
    endloop
  endfacet
  facet normal 0 0 1
    outer loop
      vertex 116.182 124.059 5
      vertex 114.173 122.994 5
      vertex 115.756 120.836 5
    endloop
  endfacet
  facet normal 0 0 1
    outer loop
      vertex 115.756 120.836 5
      vertex 114.173 122.994 5
      vertex 114.18 119.804 5
    endloop
  endfacet
  facet normal 0 0 1
    outer loop
      vertex 114.173 122.994 5
      vertex 112.291 121.718 5
      vertex 114.18 119.804 5
    endloop
  endfacet
  facet normal 0 0 1
    outer loop
      vertex 114.18 119.804 5
      vertex 112.291 121.718 5
      vertex 112.717 118.615 5
    endloop
  endfacet
  facet normal 0 0 1
    outer loop
      vertex 112.291 121.718 5
      vertex 110.558 120.246 5
      vertex 112.717 118.615 5
    endloop
  endfacet
  facet normal 0 0 1
    outer loop
      vertex 112.717 118.615 5
      vertex 110.558 120.246 5
      vertex 111.385 117.282 5
    endloop
  endfacet
  facet normal 0 0 1
    outer loop
      vertex 110.558 120.246 5
      vertex 108.995 118.595 5
      vertex 111.385 117.282 5
    endloop
  endfacet
  facet normal 0 0 1
    outer loop
      vertex 111.385 117.282 5
      vertex 108.995 118.595 5
      vertex 110.196 115.82 5
    endloop
  endfacet
  facet normal 0 0 1
    outer loop
      vertex 108.995 118.595 5
      vertex 107.618 116.785 5
      vertex 110.196 115.82 5
    endloop
  endfacet
  facet normal 0 0 1
    outer loop
      vertex 110.196 115.82 5
      vertex 107.618 116.785 5
      vertex 109.164 114.244 5
    endloop
  endfacet
  facet normal 0 0 1
    outer loop
      vertex 107.618 116.785 5
      vertex 106.446 114.837 5
      vertex 109.164 114.244 5
    endloop
  endfacet
  facet normal 0 0 1
    outer loop
      vertex 109.164 114.244 5
      vertex 106.446 114.837 5
      vertex 108.299 112.57 5
    endloop
  endfacet
  facet normal 0 0 1
    outer loop
      vertex 106.446 114.837 5
      vertex 105.491 112.773 5
      vertex 108.299 112.57 5
    endloop
  endfacet
  facet normal 0 0 1
    outer loop
      vertex 108.299 112.57 5
      vertex 105.491 112.773 5
      vertex 107.61 110.815 5
    endloop
  endfacet
  facet normal 0 0 1
    outer loop
      vertex 105.491 112.773 5
      vertex 104.765 110.618 5
      vertex 107.61 110.815 5
    endloop
  endfacet
  facet normal 0 0 1
    outer loop
      vertex 107.61 110.815 5
      vertex 104.765 110.618 5
      vertex 104.277 108.397 5
    endloop
  endfacet
  facet normal 0 0 1
    outer loop
      vertex 122.729 84.1231 5
      vertex 125 84 5
      vertex 121.375 90.1133 5
    endloop
  endfacet
  facet normal 0 0 1
    outer loop
      vertex 125 84 5
      vertex 127.27 84.1231 5
      vertex 121.375 90.1133 5
    endloop
  endfacet
  facet normal 0 0 1
    outer loop
      vertex 121.375 90.1133 5
      vertex 127.27 84.1231 5
      vertex 129 87.1051 5
    endloop
  endfacet
  facet normal 0 0 1
    outer loop
      vertex 127.27 84.1231 5
      vertex 129.514 84.491 5
      vertex 129 87.1051 5
    endloop
  endfacet
  facet normal 0 0 1
    outer loop
      vertex 129 87.1051 5
      vertex 129.514 84.491 5
      vertex 130.816 87.6101 5
    endloop
  endfacet
  facet normal 0 0 1
    outer loop
      vertex 129.514 84.491 5
      vertex 131.705 85.0993 5
      vertex 130.816 87.6101 5
    endloop
  endfacet
  facet normal 0 0 1
    outer loop
      vertex 130.816 87.6101 5
      vertex 131.705 85.0993 5
      vertex 132.57 88.2988 5
    endloop
  endfacet
  facet normal 0 0 1
    outer loop
      vertex 131.705 85.0993 5
      vertex 133.818 85.9409 5
      vertex 132.57 88.2988 5
    endloop
  endfacet
  facet normal 0 0 1
    outer loop
      vertex 132.57 88.2988 5
      vertex 133.818 85.9409 5
      vertex 134.244 89.1639 5
    endloop
  endfacet
  facet normal 0 0 1
    outer loop
      vertex 133.818 85.9409 5
      vertex 135.827 87.006 5
      vertex 134.244 89.1639 5
    endloop
  endfacet
  facet normal 0 0 1
    outer loop
      vertex 134.244 89.1639 5
      vertex 135.827 87.006 5
      vertex 135.82 90.1963 5
    endloop
  endfacet
  facet normal 0 0 1
    outer loop
      vertex 135.827 87.006 5
      vertex 137.709 88.2821 5
      vertex 135.82 90.1963 5
    endloop
  endfacet
  facet normal 0 0 1
    outer loop
      vertex 135.82 90.1963 5
      vertex 137.709 88.2821 5
      vertex 137.283 91.385 5
    endloop
  endfacet
  facet normal 0 0 1
    outer loop
      vertex 137.709 88.2821 5
      vertex 139.442 89.7541 5
      vertex 137.283 91.385 5
    endloop
  endfacet
  facet normal 0 0 1
    outer loop
      vertex 137.283 91.385 5
      vertex 139.442 89.7541 5
      vertex 138.615 92.7175 5
    endloop
  endfacet
  facet normal 0 0 1
    outer loop
      vertex 139.442 89.7541 5
      vertex 141.005 91.4049 5
      vertex 138.615 92.7175 5
    endloop
  endfacet
  facet normal 0 0 1
    outer loop
      vertex 138.615 92.7175 5
      vertex 141.005 91.4049 5
      vertex 139.804 94.1797 5
    endloop
  endfacet
  facet normal 0 0 1
    outer loop
      vertex 141.005 91.4049 5
      vertex 142.382 93.2151 5
      vertex 139.804 94.1797 5
    endloop
  endfacet
  facet normal 0 0 1
    outer loop
      vertex 139.804 94.1797 5
      vertex 142.382 93.2151 5
      vertex 140.836 95.7562 5
    endloop
  endfacet
  facet normal 0 0 1
    outer loop
      vertex 142.382 93.2151 5
      vertex 143.554 95.1634 5
      vertex 140.836 95.7562 5
    endloop
  endfacet
  facet normal 0 0 1
    outer loop
      vertex 140.836 95.7562 5
      vertex 143.554 95.1634 5
      vertex 141.701 97.4304 5
    endloop
  endfacet
  facet normal 0 0 1
    outer loop
      vertex 143.554 95.1634 5
      vertex 144.508 97.2271 5
      vertex 141.701 97.4304 5
    endloop
  endfacet
  facet normal 0 0 1
    outer loop
      vertex 141.701 97.4304 5
      vertex 144.508 97.2271 5
      vertex 142.39 99.1845 5
    endloop
  endfacet
  facet normal 0 0 1
    outer loop
      vertex 144.508 97.2271 5
      vertex 145.234 99.3819 5
      vertex 142.39 99.1845 5
    endloop
  endfacet
  facet normal 0 0 1
    outer loop
      vertex 142.39 99.1845 5
      vertex 145.234 99.3819 5
      vertex 145.723 101.603 5
    endloop
  endfacet
  facet normal 0 0 1
    outer loop
      vertex 131.705 124.901 5
      vertex 130.816 122.39 5
      vertex 133.818 124.059 5
    endloop
  endfacet
  facet normal 0 0 1
    outer loop
      vertex 130.816 122.39 5
      vertex 132.57 121.701 5
      vertex 133.818 124.059 5
    endloop
  endfacet
  facet normal 0 0 1
    outer loop
      vertex 133.818 124.059 5
      vertex 132.57 121.701 5
      vertex 135.827 122.994 5
    endloop
  endfacet
  facet normal 0 0 1
    outer loop
      vertex 132.57 121.701 5
      vertex 134.244 120.836 5
      vertex 135.827 122.994 5
    endloop
  endfacet
  facet normal 0 0 1
    outer loop
      vertex 135.827 122.994 5
      vertex 134.244 120.836 5
      vertex 137.709 121.718 5
    endloop
  endfacet
  facet normal 0 0 1
    outer loop
      vertex 134.244 120.836 5
      vertex 135.82 119.804 5
      vertex 137.709 121.718 5
    endloop
  endfacet
  facet normal 0 0 1
    outer loop
      vertex 137.709 121.718 5
      vertex 135.82 119.804 5
      vertex 139.442 120.246 5
    endloop
  endfacet
  facet normal 0 0 1
    outer loop
      vertex 135.82 119.804 5
      vertex 137.283 118.615 5
      vertex 139.442 120.246 5
    endloop
  endfacet
  facet normal 0 0 1
    outer loop
      vertex 139.442 120.246 5
      vertex 137.283 118.615 5
      vertex 141.005 118.595 5
    endloop
  endfacet
  facet normal 0 0 1
    outer loop
      vertex 137.283 118.615 5
      vertex 138.615 117.282 5
      vertex 141.005 118.595 5
    endloop
  endfacet
  facet normal 0 0 1
    outer loop
      vertex 141.005 118.595 5
      vertex 138.615 117.282 5
      vertex 142.382 116.785 5
    endloop
  endfacet
  facet normal 0 0 1
    outer loop
      vertex 138.615 117.282 5
      vertex 139.804 115.82 5
      vertex 142.382 116.785 5
    endloop
  endfacet
  facet normal 0 0 1
    outer loop
      vertex 142.382 116.785 5
      vertex 139.804 115.82 5
      vertex 143.554 114.837 5
    endloop
  endfacet
  facet normal 0 0 1
    outer loop
      vertex 139.804 115.82 5
      vertex 140.836 114.244 5
      vertex 143.554 114.837 5
    endloop
  endfacet
  facet normal 0 0 1
    outer loop
      vertex 143.554 114.837 5
      vertex 140.836 114.244 5
      vertex 144.508 112.773 5
    endloop
  endfacet
  facet normal 0 0 1
    outer loop
      vertex 140.836 114.244 5
      vertex 141.701 112.57 5
      vertex 144.508 112.773 5
    endloop
  endfacet
  facet normal 0 0 1
    outer loop
      vertex 144.508 112.773 5
      vertex 141.701 112.57 5
      vertex 145.234 110.618 5
    endloop
  endfacet
  facet normal 0 0 1
    outer loop
      vertex 141.701 112.57 5
      vertex 142.39 110.815 5
      vertex 145.234 110.618 5
    endloop
  endfacet
  facet normal 0 0 1
    outer loop
      vertex 145.234 110.618 5
      vertex 142.39 110.815 5
      vertex 145.723 108.397 5
    endloop
  endfacet
  facet normal 0 0 1
    outer loop
      vertex 142.39 110.815 5
      vertex 142.895 109 5
      vertex 145.723 108.397 5
    endloop
  endfacet
  facet normal 0 0 1
    outer loop
      vertex 145.723 108.397 5
      vertex 142.895 109 5
      vertex 145.969 106.137 5
    endloop
  endfacet
  facet normal 0 0 1
    outer loop
      vertex 142.895 109 5
      vertex 139.887 108.625 5
      vertex 145.969 106.137 5
    endloop
  endfacet
  facet normal 0 0 1
    outer loop
      vertex 145.969 106.137 5
      vertex 139.887 108.625 5
      vertex 139.887 101.375 5
    endloop
  endfacet
  facet normal 0 0 1
    outer loop
      vertex 118.295 85.0993 5
      vertex 119.184 87.6101 5
      vertex 116.182 85.9409 5
    endloop
  endfacet
  facet normal 0 0 1
    outer loop
      vertex 119.184 87.6101 5
      vertex 117.43 88.2988 5
      vertex 116.182 85.9409 5
    endloop
  endfacet
  facet normal 0 0 1
    outer loop
      vertex 116.182 85.9409 5
      vertex 117.43 88.2988 5
      vertex 114.173 87.006 5
    endloop
  endfacet
  facet normal 0 0 1
    outer loop
      vertex 117.43 88.2988 5
      vertex 115.756 89.1639 5
      vertex 114.173 87.006 5
    endloop
  endfacet
  facet normal 0 0 1
    outer loop
      vertex 114.173 87.006 5
      vertex 115.756 89.1639 5
      vertex 112.291 88.2821 5
    endloop
  endfacet
  facet normal 0 0 1
    outer loop
      vertex 115.756 89.1639 5
      vertex 114.18 90.1963 5
      vertex 112.291 88.2821 5
    endloop
  endfacet
  facet normal 0 0 1
    outer loop
      vertex 112.291 88.2821 5
      vertex 114.18 90.1963 5
      vertex 110.558 89.7541 5
    endloop
  endfacet
  facet normal 0 0 1
    outer loop
      vertex 114.18 90.1963 5
      vertex 112.717 91.385 5
      vertex 110.558 89.7541 5
    endloop
  endfacet
  facet normal 0 0 1
    outer loop
      vertex 110.558 89.7541 5
      vertex 112.717 91.385 5
      vertex 108.995 91.4049 5
    endloop
  endfacet
  facet normal 0 0 1
    outer loop
      vertex 112.717 91.385 5
      vertex 111.385 92.7175 5
      vertex 108.995 91.4049 5
    endloop
  endfacet
  facet normal 0 0 1
    outer loop
      vertex 108.995 91.4049 5
      vertex 111.385 92.7175 5
      vertex 107.618 93.2151 5
    endloop
  endfacet
  facet normal 0 0 1
    outer loop
      vertex 111.385 92.7175 5
      vertex 110.196 94.1797 5
      vertex 107.618 93.2151 5
    endloop
  endfacet
  facet normal 0 0 1
    outer loop
      vertex 107.618 93.2151 5
      vertex 110.196 94.1797 5
      vertex 106.446 95.1634 5
    endloop
  endfacet
  facet normal 0 0 1
    outer loop
      vertex 110.196 94.1797 5
      vertex 109.164 95.7562 5
      vertex 106.446 95.1634 5
    endloop
  endfacet
  facet normal 0 0 1
    outer loop
      vertex 106.446 95.1634 5
      vertex 109.164 95.7562 5
      vertex 105.491 97.2271 5
    endloop
  endfacet
  facet normal 0 0 1
    outer loop
      vertex 109.164 95.7562 5
      vertex 108.299 97.4304 5
      vertex 105.491 97.2271 5
    endloop
  endfacet
  facet normal 0 0 1
    outer loop
      vertex 105.491 97.2271 5
      vertex 108.299 97.4304 5
      vertex 104.765 99.3819 5
    endloop
  endfacet
  facet normal 0 0 1
    outer loop
      vertex 108.299 97.4304 5
      vertex 107.61 99.1845 5
      vertex 104.765 99.3819 5
    endloop
  endfacet
  facet normal 0 0 1
    outer loop
      vertex 104.765 99.3819 5
      vertex 107.61 99.1845 5
      vertex 104.277 101.603 5
    endloop
  endfacet
  facet normal 0 0 1
    outer loop
      vertex 107.61 99.1845 5
      vertex 107.105 101 5
      vertex 104.277 101.603 5
    endloop
  endfacet
  facet normal 0 0 1
    outer loop
      vertex 104.277 101.603 5
      vertex 107.105 101 5
      vertex 104.031 103.863 5
    endloop
  endfacet
  facet normal 0 0 1
    outer loop
      vertex 107.105 101 5
      vertex 110.113 101.375 5
      vertex 104.031 103.863 5
    endloop
  endfacet
  facet normal 0 0 1
    outer loop
      vertex 104.031 103.863 5
      vertex 110.113 101.375 5
      vertex 110.113 108.625 5
    endloop
  endfacet
  facet normal 0.963423 -0.267986 0
    outer loop
      vertex 107.105 109 5
      vertex 107.105 109 0
      vertex 107.61 110.815 5
    endloop
  endfacet
  facet normal 0.963423 -0.267986 0
    outer loop
      vertex 107.105 109 0
      vertex 107.61 110.815 0
      vertex 107.61 110.815 5
    endloop
  endfacet
  facet normal 0.930826 -0.365463 0
    outer loop
      vertex 107.61 110.815 5
      vertex 107.61 110.815 0
      vertex 108.299 112.57 5
    endloop
  endfacet
  facet normal 0.930826 -0.365463 0
    outer loop
      vertex 107.61 110.815 0
      vertex 108.299 112.57 0
      vertex 108.299 112.57 5
    endloop
  endfacet
  facet normal 0.888405 -0.459061 0
    outer loop
      vertex 108.299 112.57 5
      vertex 108.299 112.57 0
      vertex 109.164 114.244 5
    endloop
  endfacet
  facet normal 0.888405 -0.459061 0
    outer loop
      vertex 108.299 112.57 0
      vertex 109.164 114.244 0
      vertex 109.164 114.244 5
    endloop
  endfacet
  facet normal 0.836578 -0.547848 0
    outer loop
      vertex 109.164 114.244 5
      vertex 109.164 114.244 0
      vertex 110.196 115.82 5
    endloop
  endfacet
  facet normal 0.836578 -0.547848 0
    outer loop
      vertex 109.164 114.244 0
      vertex 110.196 115.82 0
      vertex 110.196 115.82 5
    endloop
  endfacet
  facet normal 0.775942 -0.630805 0
    outer loop
      vertex 110.196 115.82 5
      vertex 110.196 115.82 0
      vertex 111.385 117.282 5
    endloop
  endfacet
  facet normal 0.775942 -0.630805 0
    outer loop
      vertex 110.196 115.82 0
      vertex 111.385 117.282 0
      vertex 111.385 117.282 5
    endloop
  endfacet
  facet normal 0.707107 -0.707107 0
    outer loop
      vertex 111.385 117.282 5
      vertex 111.385 117.282 0
      vertex 112.717 118.615 5
    endloop
  endfacet
  facet normal 0.707107 -0.707107 0
    outer loop
      vertex 111.385 117.282 0
      vertex 112.717 118.615 0
      vertex 112.717 118.615 5
    endloop
  endfacet
  facet normal 0.630804 -0.775942 0
    outer loop
      vertex 112.717 118.615 5
      vertex 112.717 118.615 0
      vertex 114.18 119.804 5
    endloop
  endfacet
  facet normal 0.630804 -0.775942 0
    outer loop
      vertex 112.717 118.615 0
      vertex 114.18 119.804 0
      vertex 114.18 119.804 5
    endloop
  endfacet
  facet normal 0.547836 -0.836586 0
    outer loop
      vertex 114.18 119.804 5
      vertex 114.18 119.804 0
      vertex 115.756 120.836 5
    endloop
  endfacet
  facet normal 0.547836 -0.836586 0
    outer loop
      vertex 114.18 119.804 0
      vertex 115.756 120.836 0
      vertex 115.756 120.836 5
    endloop
  endfacet
  facet normal 0.459073 -0.888398 0
    outer loop
      vertex 115.756 120.836 5
      vertex 115.756 120.836 0
      vertex 117.43 121.701 5
    endloop
  endfacet
  facet normal 0.459073 -0.888398 0
    outer loop
      vertex 115.756 120.836 0
      vertex 117.43 121.701 0
      vertex 117.43 121.701 5
    endloop
  endfacet
  facet normal 0.365465 -0.930825 0
    outer loop
      vertex 117.43 121.701 5
      vertex 117.43 121.701 0
      vertex 119.184 122.39 5
    endloop
  endfacet
  facet normal 0.365465 -0.930825 0
    outer loop
      vertex 117.43 121.701 0
      vertex 119.184 122.39 0
      vertex 119.184 122.39 5
    endloop
  endfacet
  facet normal 0.267984 -0.963423 0
    outer loop
      vertex 119.184 122.39 5
      vertex 119.184 122.39 0
      vertex 121 122.895 5
    endloop
  endfacet
  facet normal 0.267984 -0.963423 0
    outer loop
      vertex 119.184 122.39 0
      vertex 121 122.895 0
      vertex 121 122.895 5
    endloop
  endfacet
  facet normal 0 -1 0
    outer loop
      vertex 128.5 118.887 1
      vertex 128.5 118.887 4
      vertex 121.5 118.887 1
    endloop
  endfacet
  facet normal 0 -1 0
    outer loop
      vertex 128.5 118.887 4
      vertex 121.5 118.887 4
      vertex 121.5 118.887 1
    endloop
  endfacet
  facet normal -0.992309 0.123786 0
    outer loop
      vertex 121 87.1051 0
      vertex 121 87.1051 5
      vertex 121.375 90.1133 5
    endloop
  endfacet
  facet normal -0.99231 0.123781 0
    outer loop
      vertex 121.5 91.1133 4
      vertex 121.5 91.1133 1
      vertex 121.375 90.1133 5
    endloop
  endfacet
  facet normal -0.99231 0.123781 0
    outer loop
      vertex 121.5 91.1133 1
      vertex 121.375 90.1133 0
      vertex 121.375 90.1133 5
    endloop
  endfacet
  facet normal -0.992309 0.123786 0
    outer loop
      vertex 121.375 90.1133 5
      vertex 121.375 90.1133 0
      vertex 121 87.1051 0
    endloop
  endfacet
  facet normal 0.99231 0.123781 0
    outer loop
      vertex 128.5 91.1133 1
      vertex 128.5 91.1133 4
      vertex 128.625 90.1133 0
    endloop
  endfacet
  facet normal 0.99231 0.123781 0
    outer loop
      vertex 128.5 91.1133 4
      vertex 128.625 90.1133 5
      vertex 128.625 90.1133 0
    endloop
  endfacet
  facet normal 0.992309 0.123786 0
    outer loop
      vertex 128.625 90.1133 0
      vertex 128.625 90.1133 5
      vertex 129 87.1051 0
    endloop
  endfacet
  facet normal 0.992309 0.123786 0
    outer loop
      vertex 128.625 90.1133 5
      vertex 129 87.1051 5
      vertex 129 87.1051 0
    endloop
  endfacet
  facet normal 0 1 0
    outer loop
      vertex 121.5 91.1133 1
      vertex 121.5 91.1133 4
      vertex 128.5 91.1133 1
    endloop
  endfacet
  facet normal 0 1 0
    outer loop
      vertex 121.5 91.1133 4
      vertex 128.5 91.1133 4
      vertex 128.5 91.1133 1
    endloop
  endfacet
  facet normal -0.963424 0.267983 0
    outer loop
      vertex 142.895 101 5
      vertex 142.895 101 0
      vertex 142.39 99.1845 5
    endloop
  endfacet
  facet normal -0.963424 0.267983 0
    outer loop
      vertex 142.895 101 0
      vertex 142.39 99.1845 0
      vertex 142.39 99.1845 5
    endloop
  endfacet
  facet normal -0.930825 0.365465 0
    outer loop
      vertex 142.39 99.1845 5
      vertex 142.39 99.1845 0
      vertex 141.701 97.4304 5
    endloop
  endfacet
  facet normal -0.930825 0.365465 0
    outer loop
      vertex 142.39 99.1845 0
      vertex 141.701 97.4304 0
      vertex 141.701 97.4304 5
    endloop
  endfacet
  facet normal -0.888398 0.459074 0
    outer loop
      vertex 141.701 97.4304 5
      vertex 141.701 97.4304 0
      vertex 140.836 95.7562 5
    endloop
  endfacet
  facet normal -0.888398 0.459074 0
    outer loop
      vertex 141.701 97.4304 0
      vertex 140.836 95.7562 0
      vertex 140.836 95.7562 5
    endloop
  endfacet
  facet normal -0.836581 0.547843 0
    outer loop
      vertex 140.836 95.7562 5
      vertex 140.836 95.7562 0
      vertex 139.804 94.1797 5
    endloop
  endfacet
  facet normal -0.836581 0.547843 0
    outer loop
      vertex 140.836 95.7562 0
      vertex 139.804 94.1797 0
      vertex 139.804 94.1797 5
    endloop
  endfacet
  facet normal -0.775949 0.630796 0
    outer loop
      vertex 139.804 94.1797 5
      vertex 139.804 94.1797 0
      vertex 138.615 92.7175 5
    endloop
  endfacet
  facet normal -0.775949 0.630796 0
    outer loop
      vertex 139.804 94.1797 0
      vertex 138.615 92.7175 0
      vertex 138.615 92.7175 5
    endloop
  endfacet
  facet normal -0.707109 0.707104 0
    outer loop
      vertex 138.615 92.7175 5
      vertex 138.615 92.7175 0
      vertex 137.283 91.385 5
    endloop
  endfacet
  facet normal -0.707109 0.707104 0
    outer loop
      vertex 138.615 92.7175 0
      vertex 137.283 91.385 0
      vertex 137.283 91.385 5
    endloop
  endfacet
  facet normal -0.630807 0.77594 0
    outer loop
      vertex 137.283 91.385 5
      vertex 137.283 91.385 0
      vertex 135.82 90.1963 5
    endloop
  endfacet
  facet normal -0.630807 0.77594 0
    outer loop
      vertex 137.283 91.385 0
      vertex 135.82 90.1963 0
      vertex 135.82 90.1963 5
    endloop
  endfacet
  facet normal -0.547821 0.836595 0
    outer loop
      vertex 135.82 90.1963 5
      vertex 135.82 90.1963 0
      vertex 134.244 89.1639 5
    endloop
  endfacet
  facet normal -0.547821 0.836595 0
    outer loop
      vertex 135.82 90.1963 0
      vertex 134.244 89.1639 0
      vertex 134.244 89.1639 5
    endloop
  endfacet
  facet normal -0.459074 0.888398 0
    outer loop
      vertex 134.244 89.1639 5
      vertex 134.244 89.1639 0
      vertex 132.57 88.2988 5
    endloop
  endfacet
  facet normal -0.459074 0.888398 0
    outer loop
      vertex 134.244 89.1639 0
      vertex 132.57 88.2988 0
      vertex 132.57 88.2988 5
    endloop
  endfacet
  facet normal -0.36547 0.930823 0
    outer loop
      vertex 132.57 88.2988 5
      vertex 132.57 88.2988 0
      vertex 130.816 87.6101 5
    endloop
  endfacet
  facet normal -0.36547 0.930823 0
    outer loop
      vertex 132.57 88.2988 0
      vertex 130.816 87.6101 0
      vertex 130.816 87.6101 5
    endloop
  endfacet
  facet normal -0.268003 0.963418 0
    outer loop
      vertex 130.816 87.6101 5
      vertex 130.816 87.6101 0
      vertex 129 87.1051 5
    endloop
  endfacet
  facet normal -0.268003 0.963418 0
    outer loop
      vertex 130.816 87.6101 0
      vertex 129 87.1051 0
      vertex 129 87.1051 5
    endloop
  endfacet
  facet normal -0.12378 -0.99231 0
    outer loop
      vertex 138.887 101.5 4
      vertex 138.887 101.5 1
      vertex 139.887 101.375 5
    endloop
  endfacet
  facet normal -0.12378 -0.99231 0
    outer loop
      vertex 138.887 101.5 1
      vertex 139.887 101.375 0
      vertex 139.887 101.375 5
    endloop
  endfacet
  facet normal -0.123786 -0.992309 0
    outer loop
      vertex 139.887 101.375 5
      vertex 139.887 101.375 0
      vertex 142.895 101 5
    endloop
  endfacet
  facet normal -0.123786 -0.992309 0
    outer loop
      vertex 139.887 101.375 0
      vertex 142.895 101 0
      vertex 142.895 101 5
    endloop
  endfacet
  facet normal -0.1238 0.992307 0
    outer loop
      vertex 142.895 109 5
      vertex 142.895 109 0
      vertex 139.887 108.625 0
    endloop
  endfacet
  facet normal -0.12374 0.992315 0
    outer loop
      vertex 138.887 108.5 1
      vertex 138.887 108.5 4
      vertex 139.887 108.625 0
    endloop
  endfacet
  facet normal -0.12374 0.992315 0
    outer loop
      vertex 138.887 108.5 4
      vertex 139.887 108.625 5
      vertex 139.887 108.625 0
    endloop
  endfacet
  facet normal -0.1238 0.992307 0
    outer loop
      vertex 139.887 108.625 0
      vertex 139.887 108.625 5
      vertex 142.895 109 5
    endloop
  endfacet
  facet normal -1 0 0
    outer loop
      vertex 138.887 101.5 1
      vertex 138.887 101.5 4
      vertex 138.887 108.5 1
    endloop
  endfacet
  facet normal -1 0 0
    outer loop
      vertex 138.887 101.5 4
      vertex 138.887 108.5 4
      vertex 138.887 108.5 1
    endloop
  endfacet
  facet normal -0.267984 -0.963423 0
    outer loop
      vertex 129 122.895 5
      vertex 129 122.895 0
      vertex 130.816 122.39 5
    endloop
  endfacet
  facet normal -0.267984 -0.963423 0
    outer loop
      vertex 129 122.895 0
      vertex 130.816 122.39 0
      vertex 130.816 122.39 5
    endloop
  endfacet
  facet normal -0.365465 -0.930825 0
    outer loop
      vertex 130.816 122.39 5
      vertex 130.816 122.39 0
      vertex 132.57 121.701 5
    endloop
  endfacet
  facet normal -0.365465 -0.930825 0
    outer loop
      vertex 130.816 122.39 0
      vertex 132.57 121.701 0
      vertex 132.57 121.701 5
    endloop
  endfacet
  facet normal -0.459073 -0.888398 0
    outer loop
      vertex 132.57 121.701 5
      vertex 132.57 121.701 0
      vertex 134.244 120.836 5
    endloop
  endfacet
  facet normal -0.459073 -0.888398 0
    outer loop
      vertex 132.57 121.701 0
      vertex 134.244 120.836 0
      vertex 134.244 120.836 5
    endloop
  endfacet
  facet normal -0.547836 -0.836586 0
    outer loop
      vertex 134.244 120.836 5
      vertex 134.244 120.836 0
      vertex 135.82 119.804 5
    endloop
  endfacet
  facet normal -0.547836 -0.836586 0
    outer loop
      vertex 134.244 120.836 0
      vertex 135.82 119.804 0
      vertex 135.82 119.804 5
    endloop
  endfacet
  facet normal -0.630804 -0.775942 0
    outer loop
      vertex 135.82 119.804 5
      vertex 135.82 119.804 0
      vertex 137.283 118.615 5
    endloop
  endfacet
  facet normal -0.630804 -0.775942 0
    outer loop
      vertex 135.82 119.804 0
      vertex 137.283 118.615 0
      vertex 137.283 118.615 5
    endloop
  endfacet
  facet normal -0.707107 -0.707107 0
    outer loop
      vertex 137.283 118.615 5
      vertex 137.283 118.615 0
      vertex 138.615 117.282 5
    endloop
  endfacet
  facet normal -0.707107 -0.707107 0
    outer loop
      vertex 137.283 118.615 0
      vertex 138.615 117.282 0
      vertex 138.615 117.282 5
    endloop
  endfacet
  facet normal -0.775942 -0.630805 0
    outer loop
      vertex 138.615 117.282 5
      vertex 138.615 117.282 0
      vertex 139.804 115.82 5
    endloop
  endfacet
  facet normal -0.775942 -0.630805 0
    outer loop
      vertex 138.615 117.282 0
      vertex 139.804 115.82 0
      vertex 139.804 115.82 5
    endloop
  endfacet
  facet normal -0.836578 -0.547848 0
    outer loop
      vertex 139.804 115.82 5
      vertex 139.804 115.82 0
      vertex 140.836 114.244 5
    endloop
  endfacet
  facet normal -0.836578 -0.547848 0
    outer loop
      vertex 139.804 115.82 0
      vertex 140.836 114.244 0
      vertex 140.836 114.244 5
    endloop
  endfacet
  facet normal -0.888405 -0.459061 0
    outer loop
      vertex 140.836 114.244 5
      vertex 140.836 114.244 0
      vertex 141.701 112.57 5
    endloop
  endfacet
  facet normal -0.888405 -0.459061 0
    outer loop
      vertex 140.836 114.244 0
      vertex 141.701 112.57 0
      vertex 141.701 112.57 5
    endloop
  endfacet
  facet normal -0.930826 -0.365463 0
    outer loop
      vertex 141.701 112.57 5
      vertex 141.701 112.57 0
      vertex 142.39 110.815 5
    endloop
  endfacet
  facet normal -0.930826 -0.365463 0
    outer loop
      vertex 141.701 112.57 0
      vertex 142.39 110.815 0
      vertex 142.39 110.815 5
    endloop
  endfacet
  facet normal -0.963423 -0.267986 0
    outer loop
      vertex 142.39 110.815 5
      vertex 142.39 110.815 0
      vertex 142.895 109 5
    endloop
  endfacet
  facet normal -0.963423 -0.267986 0
    outer loop
      vertex 142.39 110.815 0
      vertex 142.895 109 0
      vertex 142.895 109 5
    endloop
  endfacet
  facet normal 0.99231 -0.123781 0
    outer loop
      vertex 128.5 118.887 4
      vertex 128.5 118.887 1
      vertex 128.625 119.887 5
    endloop
  endfacet
  facet normal 0.99231 -0.123781 0
    outer loop
      vertex 128.5 118.887 1
      vertex 128.625 119.887 0
      vertex 128.625 119.887 5
    endloop
  endfacet
  facet normal 0.992309 -0.123786 0
    outer loop
      vertex 128.625 119.887 5
      vertex 128.625 119.887 0
      vertex 129 122.895 5
    endloop
  endfacet
  facet normal 0.992309 -0.123786 0
    outer loop
      vertex 128.625 119.887 0
      vertex 129 122.895 0
      vertex 129 122.895 5
    endloop
  endfacet
endsolid Teaching Tech camera mount - locking ring - loose.stl
